<?xml version="1.0" encoding="utf-8"?>
<!-- Generator: Adobe Illustrator 22.1.0, SVG Export Plug-In . SVG Version: 6.00 Build 0)  -->
<svg version="1.1" id="Layer_1" xmlns="http://www.w3.org/2000/svg" xmlns:xlink="http://www.w3.org/1999/xlink" x="0px" y="0px"
	 viewBox="0 0 700 134" style="enable-background:new 0 0 700 134;" xml:space="preserve">
<style type="text/css">
	.st0{fill:#FFFFFF;}
	.st1{fill:#EA3991;}
</style>
<path class="st0" d="M44.5,21.3c-3.3-0.9-6.7-1.3-10.2-1.3s-6.4,0.9-8.6,2.7c-2.1,1.7-3.2,4.2-3.2,7.5c0,3.2,0.8,5.7,2.4,7.5
	s4.8,3.4,9.6,4.8l12.8,3.7c6.9,2,12.4,5.2,16.4,9.5C67.9,60,70,66.2,70,74.5c0,9.8-3.6,17.5-10.7,23.2c-7,5.7-15.7,8.5-26.2,8.5
	c-5.8,0-11.7-0.7-17.9-2.2c-6-1.5-11.1-3.6-15.1-6.3c0-0.6,0-1.7,0-3.3c0-1.6,0.3-4.4,1-8.4c0.7-3.9,1.6-7.2,2.9-9.6h13.7
	c1.5,3,2.4,7,2.7,12c3.4,1.4,7.2,2.2,11.7,2.2s8.2-1.1,11.1-3.2c2.9-2.1,4.3-5.1,4.3-9.1c0-1.8-0.1-3.3-0.4-4.5
	c-0.3-1.2-1.2-2.5-2.7-3.9c-1.4-1.4-3.6-2.6-6.3-3.5l-14.8-4.3C8.1,57.8,0.6,48.2,0.6,33.3c0-8.7,3.2-15.7,9.5-20.9
	c6.3-5.3,14.6-7.9,24.8-7.9c10.3,0,20.3,2.3,30.1,6.9c0,0.6,0,1.7,0,3.3s-0.3,4.4-1,8.4s-1.6,7.2-2.9,9.6H47.4
	C45.7,30.4,44.8,26.6,44.5,21.3z M111.3,106.2c-11.5,0-20.2-3.1-26.1-9.2c-5.8-6.1-8.6-15.1-8.6-26.8c0-7.1,1-13.2,3-18.3
	c2-5.2,4.8-9.2,8.2-12c6.7-5.4,14.5-8.1,23.5-8.1s15.7,2.3,20.4,6.9c4.8,4.5,7.2,12.7,7.2,24.5c0,6.9-3.4,10.4-10.2,10.4H97.5
	c0.4,6,1.9,10.3,4.6,12.8c2.8,2.5,7.2,3.7,13.1,3.7c3.3,0,6.4-0.4,9.4-1.2s5.1-1.5,6.5-2.3l2-1.2l4.3,11.5c-0.6,0.7-1.4,1.5-2.6,2.6
	c-1.1,1-3.8,2.3-8.4,4C122,105.3,117,106.2,111.3,106.2z M120.4,60.8c0.2-1.3,0.3-3,0.3-4.9s-0.8-3.9-2.3-6
	c-1.5-2.2-4.2-3.3-8.1-3.3c-3.7,0-6.6,1.2-8.6,3.5s-3.4,6.2-4,11.7L120.4,60.8z M185,61.2c0.7-2.6,2.1-5.6,4.2-8.9l2.6-4
	c-2.8-1.2-4.8-2.6-5.9-4.2l1.4-11.1H219l1.4,11.1c-1.9,2.6-5.8,4.7-11.7,6.2L196,68l13.5,20c5.3,1.4,8.9,3.4,10.9,5.9L219,105h-33
	l-1.4-11.1c1-1.2,2.7-2.5,5.3-3.7l-3.6-5.9c-1.6-2.7-2.9-5.5-3.7-8.5l-0.4-1.4h-2c-0.9,3.4-2.3,6.6-4.2,9.6l-3.5,5.5
	c3.3,1.4,5.5,2.9,6.6,4.5l-1.4,11.1H146L144.6,94c1.8-2.4,5.4-4.4,10.8-5.9L169,68l-12.7-17.7c-5.8-1.5-9.6-3.6-11.7-6.2L146,33
	h33.1l1.4,11.1c-1.3,1.5-3,2.7-4.9,3.6l3,4.3c1.9,2.9,3.3,6,4.2,9.2C182.8,61.2,185,61.2,185,61.2z M226,33c5.3-1.2,10-1.7,14.3-1.7
	s7.7,0.1,10.5,0.3v7.1c6.4-4.5,13.3-6.8,20.6-6.8c9.6,0,16.6,2.7,20.9,8.2s6.5,14.6,6.5,27.4c0,6.8-1,12.8-3,18s-4.8,9.2-8.2,12.1
	c-6.6,5.8-14.5,8.6-23.6,8.6c-3.9,0-7.7-0.4-11.2-1.2v12.4c5.7,1.5,9.3,3.3,10.9,5.3l-1.4,11.1H226l-1.4-11.1
	c1.2-1.7,3.9-3.4,7.9-4.9V49c-3.4-1.2-6-2.8-7.9-4.9L226,33z M262.4,91.5c4.8,0,8.6-2.1,11.4-6.3c2.8-4.3,4.2-10.2,4.2-17.7
	c0-7.6-0.8-12.8-2.3-15.6s-4.3-4.2-8.4-4.2c-6.1,0-11,1.4-14.7,4.3v38.3C255.6,91.1,258.8,91.5,262.4,91.5z M305.8,2.8
	c5.4-1.2,10.4-1.9,15-1.9s8.5,0.1,11.7,0.4V89c3.7,1.4,6.4,3.1,7.9,4.9L339,105h-33.1l-1.4-11.1c1.3-1.8,4-3.5,7.9-4.9V18.7
	c-3.4-1.2-6-2.8-7.9-4.9L305.8,2.8z M349.2,43.7c0-1.4,0-3,0.1-4.6c8.9-4.8,18.5-7.2,28.8-7.2s17.6,2,22,5.9
	C404.7,41.6,407,48,407,57v30.7c3.4,0.7,6,1.5,7.9,2.4v12.5c-4.9,2.3-11.9,3.5-21,3.5c-1-2.5-1.8-5.5-2.4-9.1
	c-4.1,6-11.6,9.1-22.5,9.1c-6.4,0-12-1.9-16.6-5.6c-4.5-3.7-6.8-8.8-6.8-15.3c0-6.4,2.1-11.5,6.3-15.1c4.3-3.7,10.7-5.6,19.2-5.6
	h15.7v-6.9c0-7.5-4-11.2-12-11.2c-3,0-5.4,0.3-7.3,0.9c-0.2,4-0.8,7.2-1.7,9.4h-14.1C350,53.3,349.2,48.9,349.2,43.7z M375.1,91.5
	c4.9,0,8.8-1.4,11.7-4.3V75.3h-10.1c-6.9,0-10.4,2.6-10.4,7.9c0,2.4,0.7,4.4,2.2,5.9C370,90.7,372.3,91.5,375.1,91.5z M421.8,33
	c5.4-1.2,10.4-1.9,15-1.9s8.5,0.1,11.7,0.4V89c3.7,1.4,6.4,3.1,7.9,4.9L455,105h-33.1l-1.4-11.1c1.3-1.8,4-3.5,7.9-4.9V49
	c-3.4-1.2-6-2.8-7.9-4.9L421.8,33z M438,23.1c-8,0-12-3.6-12-10.8c0-7.3,4-10.9,12-10.9c8.1,0,12.1,3.6,12.1,10.9
	C450.1,19.5,446.1,23.1,438,23.1z M463.5,33c5.3-1.2,10-1.7,14.3-1.7s7.7,0.1,10.5,0.3v7.2c2.4-2,5.6-3.6,9.5-4.9
	c4-1.3,7.9-2,11.5-2c9.4,0,16,2.2,19.7,6.6c3.8,4.4,5.8,12,5.8,22.9V89c3.7,1.4,6.4,3.1,7.9,4.9l-1.4,11.1h-33.1l-1.4-11.1
	c1.3-1.8,4-3.5,7.9-4.9V60.5c0-5.2-0.9-8.6-2.6-10.4c-1.6-1.8-4.6-2.7-8.9-2.7s-8.6,1.5-13,4.6v37c3.7,1.4,6.4,3.1,7.9,4.9
	l-1.4,11.1h-33.1l-1.4-11.1c1.3-1.8,4-3.5,7.9-4.9V49c-3.4-1.2-6-2.8-7.9-4.9L463.5,33z"/>
<path class="st1" d="M616.8,105H550l-1.4-12c1.2-1.6,3.9-3.2,7.9-4.8V22.5c-3.9-1.4-6.6-3.1-7.9-4.9l1.4-12h65.7v25.1L605,32
	c-2.2-1.9-4-5.5-5.3-10.7h-22.5v24.8h20c1.2-2.9,2.4-4.9,3.6-6l9.1,1v25.6l-9.1,1.2c-1.2-1-2.4-3-3.6-6h-20v27.5h23.6
	c1.2-5,3-8.5,5.3-10.7l10.7,1.3V105z M662.8,2.8c5.5-1.2,10.7-1.9,15.7-1.9s9.3,0.1,12.8,0.4v86.4c2.9,0.5,5.5,1.3,7.9,2.4v11.4
	c-5.8,3.1-13.1,4.6-21.9,4.6c-1-0.5-1.9-1.3-2.9-2.6c-0.9-1.2-1.3-2.4-1.4-3.6c-2.1,1.7-4.8,3.2-8.2,4.5c-3.4,1.2-6.7,1.7-9.9,1.7
	c-10.4,0-17.9-2.8-22.6-8.4c-4.6-5.7-6.9-14.9-6.9-27.6c0-14.5,3.6-24.7,10.7-30.5c6.2-5.2,13.9-7.8,23-7.8c4,0,8.1,0.5,12.1,1.4V19
	c-4.4-1.2-7.7-3-9.8-5.2L662.8,2.8z M657.9,91.5c5.5,0,9.9-1.6,13.2-4.9V48c-3.9-1-8.1-1.4-12.5-1.4s-7.6,2-9.6,5.9
	c-1.9,3.8-2.9,9.6-2.9,17.4c0,7.7,1,13.2,2.9,16.6C650.9,89.8,653.8,91.5,657.9,91.5z"/>
</svg>
