<?xml version="1.0" encoding="utf-8"?>
<!-- Generator: Adobe Illustrator 22.1.0, SVG Export Plug-In . SVG Version: 6.00 Build 0)  -->
<svg version="1.1" id="Layer_1" xmlns="http://www.w3.org/2000/svg" xmlns:xlink="http://www.w3.org/1999/xlink" x="0px" y="0px"
	 viewBox="0 0 512 512" style="enable-background:new 0 0 512 512;" xml:space="preserve">
<style type="text/css">
	.st0{fill:#FFFFFF;}
</style>
<path class="st0" d="M324.7,398.4c-9.5,0-17.2,7.7-17.2,17.2c0,12.1-9.9,22.1-22.1,22.1H57.2c-12.2,0-22.1-9.9-22.1-22.1V96.5
	c0-12.2,9.9-22.1,22.1-22.1h228.3c12.1,0,22.1,9.9,22.1,22.1c0,9.4,7.7,17.2,17.2,17.2s17.2-7.7,17.2-17.2
	c0-31.2-25.3-56.5-56.5-56.5H57.2C26,40,0.7,65.3,0.7,96.5v319.1C0.7,446.7,26,472,57.2,472h228.3c31.2,0,56.5-25.3,56.5-56.5
	C341.9,406.1,334.2,398.4,324.7,398.4z"/>
<path class="st0" d="M399.5,135.9c-3.2-3.2-7.5-5-12.1-5c-4.5,0-9,1.7-12.1,5c-6.8,6.8-6.8,17.6,0,24.3l80,78.8H140.6
	c-9.4,0-17.2,7.7-17.2,17.2c0,9.4,7.7,17.2,17.2,17.2h314.9L377.5,352c-6.6,6.6-6.6,17.5,0,24.3l0.1,0.1c3.3,3.1,7.6,4.8,12,4.8
	c4.7,0,9-1.7,12.1-5L503.2,275c5.3-5.3,8-11.4,8-18c0-6.5-2.8-12.6-8-17.8L399.5,135.9L399.5,135.9z"/>
</svg>
