<?xml version="1.0" encoding="utf-8"?>
<!-- Generator: Adobe Illustrator 22.1.0, SVG Export Plug-In . SVG Version: 6.00 Build 0)  -->
<svg version="1.1" id="Layer_1" xmlns="http://www.w3.org/2000/svg" xmlns:xlink="http://www.w3.org/1999/xlink" x="0px" y="0px"
	 viewBox="0 0 500 500" style="enable-background:new 0 0 500 500;" xml:space="preserve">
<style type="text/css">
	.st0{fill:#292C2F;}
</style>
<path class="st0" d="M80.7,226.1h338.6c13.2,0,23.9,10.7,23.9,23.9v0c0,13.2-10.7,23.9-23.9,23.9H80.7c-13.2,0-23.9-10.7-23.9-23.9
	v0C56.8,236.8,67.5,226.1,80.7,226.1z"/>
<path class="st0" d="M113.9,342.5h272.1c13.2,0,23.9,10.7,23.9,23.9v0c0,13.2-10.7,23.9-23.9,23.9H113.9
	c-13.2,0-23.9-10.7-23.9-23.9v0C90.1,353.2,100.7,342.5,113.9,342.5z"/>
<path class="st0" d="M386.1,157.5H113.9c-13.2,0-23.9-10.7-23.9-23.9v0c0-13.2,10.7-23.9,23.9-23.9h272.1
	c13.2,0,23.9,10.7,23.9,23.9v0C409.9,146.8,399.3,157.5,386.1,157.5z"/>
</svg>
