<svg xmlns="http://www.w3.org/2000/svg" viewBox="0 0 612.42 612.42"><defs><style>.cls-1{fill:#7c7c7c;}.cls-2{fill:none;}</style></defs><title>search</title><g id="Layer_2" data-name="Layer 2"><g id="Layer_1-2" data-name="Layer 1"><g id="xpRPYx.tif"><path class="cls-1" d="M327.44,332.35c-9.13-9.06,12.3,11.4,3.71,2.87-7,3.2-13.84,7-21.15,9.57a80.18,80.18,0,0,1-104.77-59c-9.69-44.74,20.85-90.13,66-98.11,44.57-7.88,85.43,19.78,93.89,64,4,20.76.09,40.42-11.19,58.37-1.87,3-1.55,4.43.87,6.75,8,7.72-14.57-13.57-6.49-5.46,1.1-1,2-1.78,2.82-2.59,2.84-2.68,4.11-2.69,6.95.14q11.75,11.69,23.45,23.4c13.28,13.27,26.61,26.49,39.83,39.82,6.47,6.52,8.37,14.51,5.76,23.19-2.53,8.46-8.44,13.89-17.14,15.79-8,1.73-15.22-.15-21.05-5.92q-32-31.72-63.8-63.65c-2.66-2.66-2.62-4,0-6.68C325.87,334,326.61,333.22,327.44,332.35Zm-43.8-2.06a63.79,63.79,0,0,0,64-63.63A61.11,61.11,0,0,0,286.4,205c-35.08,0-64,28.74-64.09,63.75A61.15,61.15,0,0,0,283.64,330.29Z"/></g><rect class="cls-2" width="612.42" height="612.42"/></g></g></svg>